<svg width="47" height="43" viewBox="0 0 47 43" fill="none" xmlns="http://www.w3.org/2000/svg">
<path d="M1.63965 19.3447C1.63965 15.7228 4.57582 12.7866 8.19778 12.7866H38.183C40.5373 12.7866 42.4458 14.6951 42.4458 17.0494V19.8548C42.4458 20.6597 43.0983 21.3122 43.9032 21.3122V21.3122C44.708 21.3122 45.3605 21.9647 45.3605 22.7696V31.2222C45.3605 32.0271 44.708 32.6796 43.9032 32.6796V32.6796C43.0983 32.6796 42.4458 33.3321 42.4458 34.137V36.9424C42.4458 39.2967 40.5373 41.2052 38.183 41.2052H8.19777C4.57582 41.2052 1.63965 38.269 1.63965 34.6471V19.3447Z" fill="#118AB2"/>
<path fill-rule="evenodd" clip-rule="evenodd" d="M0 19.3451C0 14.8177 3.67022 11.1475 8.19766 11.1475H38.1829C41.4426 11.1475 44.0852 13.79 44.0852 17.0498V19.6783C45.7108 19.7726 46.9999 21.1207 46.9999 22.7699V31.2226C46.9999 32.8718 45.7108 34.22 44.0852 34.3142V36.9428C44.0852 40.2025 41.4426 42.8451 38.1829 42.8451H8.19766C3.67021 42.8451 0 39.1749 0 34.6474V19.3451ZM8.19766 14.4265C5.4812 14.4265 3.27906 16.6287 3.27906 19.3451V34.6474C3.27906 37.3639 5.48119 39.566 8.19766 39.566H38.1829C39.6317 39.566 40.8061 38.3916 40.8061 36.9428V34.1373C40.8061 32.4881 42.0953 31.14 43.7209 31.0457V22.9468C42.0953 22.8525 40.8061 21.5044 40.8061 19.8552V17.0498C40.8061 15.601 39.6317 14.4265 38.1829 14.4265H8.19766Z" fill="#118AB2"/>
<path d="M32.2441 23.7168C32.2441 22.5095 33.2229 21.5308 34.4302 21.5308H43.1744C44.3817 21.5308 45.3604 22.5095 45.3604 23.7168V30.2749C45.3604 31.4823 44.3817 32.461 43.1744 32.461H34.4302C33.2229 32.461 32.2441 31.4823 32.2441 30.2749V23.7168Z" fill="#FFD166"/>
<path fill-rule="evenodd" clip-rule="evenodd" d="M30.6047 23.7172C30.6047 21.6044 32.3175 19.8916 34.4303 19.8916H43.1745C45.2873 19.8916 47.0001 21.6044 47.0001 23.7172V30.2753C47.0001 32.3881 45.2873 34.1009 43.1745 34.1009H34.4303C32.3175 34.1009 30.6047 32.3881 30.6047 30.2753V23.7172ZM34.4303 23.1707C34.1285 23.1707 33.8838 23.4153 33.8838 23.7172V30.2753C33.8838 30.5771 34.1285 30.8218 34.4303 30.8218H43.1745C43.4763 30.8218 43.721 30.5771 43.721 30.2753V23.7172C43.721 23.4153 43.4763 23.1707 43.1745 23.1707H34.4303Z" fill="#118AB2"/>
<path d="M25.9129 1.9608L8.86085 12.3815C8.67247 12.4966 8.75407 12.7866 8.97485 12.7866H34.0622C34.2281 12.7866 34.3335 12.609 34.2541 12.4633L28.9719 2.77932C28.3736 1.68235 26.9791 1.30923 25.9129 1.9608Z" fill="#FFD166"/>
<path fill-rule="evenodd" clip-rule="evenodd" d="M27.5324 3.56461C27.3828 3.29037 27.0342 3.19709 26.7676 3.35998L14.0248 11.1473H31.6684L27.5324 3.56461ZM25.0578 0.562016C26.9236 -0.578237 29.364 0.0747366 30.4111 1.99443L35.6933 11.6784C36.3686 12.9166 35.4724 14.4263 34.062 14.4263H8.97468C7.09808 14.4263 6.40443 11.9613 8.00575 10.9827L25.0578 0.562016Z" fill="#118AB2"/>
<path fill-rule="evenodd" clip-rule="evenodd" d="M16.9418 34.1006C16.0363 34.1006 15.3022 33.3665 15.3022 32.4611L15.3022 21.5308C15.3022 20.6253 16.0363 19.8913 16.9418 19.8913C17.8473 19.8913 18.5813 20.6253 18.5813 21.5308L18.5813 32.4611C18.5813 33.3665 17.8473 34.1006 16.9418 34.1006Z" fill="#FFD166"/>
</svg>
