<svg width="126" height="128" viewBox="0 0 126 128" fill="none" xmlns="http://www.w3.org/2000/svg">
<path d="M81.401 69.6114L46.9347 109.423C40.5437 116.82 29.3646 117.602 21.9679 111.211C14.5712 104.82 13.7897 93.6404 20.1808 86.2437L54.647 46.4318" stroke="white" stroke-opacity="0.03" stroke-miterlimit="10"/>
<path d="M84.0097 66.546L52.7581 102.654C46.3671 110.051 35.188 110.832 27.7913 104.441C20.3946 98.0501 19.6131 86.871 26.0041 79.4743L57.2557 43.3664" stroke="white" stroke-opacity="0.03" stroke-miterlimit="10"/>
<path d="M86.6681 63.5069L58.5929 95.9222C52.2018 103.319 41.0228 104.1 33.6261 97.7093C26.2293 91.3183 25.4478 80.1392 31.8389 72.7425L59.9141 40.3273" stroke="white" stroke-opacity="0.03" stroke-miterlimit="10"/>
<path d="M89.3263 60.4679L64.4273 89.1904C58.0363 96.5871 46.8572 97.3686 39.4605 90.9776C32.0638 84.5865 31.2823 73.4075 37.6734 66.0108L62.5723 37.2882" stroke="white" stroke-opacity="0.03" stroke-miterlimit="10"/>
<path d="M91.9726 57.3907L70.2996 82.4477C63.9086 89.8444 52.7295 90.6259 45.3328 84.2349C37.9361 77.8438 37.1546 66.6648 43.5457 59.2681L65.2186 34.2111" stroke="white" stroke-opacity="0.03" stroke-miterlimit="10"/>
<path d="M94.6313 54.3526L76.1346 75.7169C69.7436 83.1136 58.5645 83.8951 51.1678 77.5041C43.7711 71.1131 42.9896 59.934 49.3806 52.5373L67.8773 31.173" stroke="white" stroke-opacity="0.03" stroke-miterlimit="10"/>
<path d="M97.2396 51.2862L81.9193 68.9578C75.5283 76.3545 64.3492 77.136 56.9525 70.745C49.5558 64.354 48.7743 53.1749 55.1653 45.7782L70.4857 28.1066" stroke="white" stroke-opacity="0.03" stroke-miterlimit="10"/>
<path d="M134.909 115.969L100.443 155.781C94.0518 163.178 82.8727 163.959 75.476 157.568C68.0793 151.177 67.2978 139.998 73.6888 132.602L108.155 92.7897" stroke="white" stroke-opacity="0.03" stroke-miterlimit="10"/>
<path d="M137.568 112.931L106.278 149.05C99.8865 156.447 88.7074 157.228 81.3107 150.837C73.914 144.446 73.1325 133.267 79.5235 125.87L110.814 89.7511" stroke="white" stroke-opacity="0.03" stroke-miterlimit="10"/>
<path d="M140.215 109.854L112.139 142.269C105.748 149.666 94.5694 150.447 87.1727 144.056C79.776 137.665 78.9945 126.486 85.3855 119.089L113.461 86.674" stroke="white" stroke-opacity="0.03" stroke-miterlimit="10"/>
<path d="M142.873 106.815L117.974 135.537C111.583 142.934 100.404 143.715 93.0072 137.324C85.6104 130.933 84.829 119.754 91.22 112.357L116.119 83.6349" stroke="white" stroke-opacity="0.03" stroke-miterlimit="10"/>
<path d="M145.481 103.749L123.808 128.806C117.417 136.202 106.238 136.984 98.8411 130.593C91.4444 124.202 90.6629 113.023 97.054 105.626L118.727 80.569" stroke="white" stroke-opacity="0.03" stroke-miterlimit="10"/>
<path d="M148.139 100.711L129.643 122.075C123.252 129.472 112.073 130.253 104.676 123.862C97.2791 117.471 96.4977 106.292 102.889 98.8952L121.385 77.5309" stroke="white" stroke-opacity="0.03" stroke-miterlimit="10"/>
<path d="M150.786 97.6329L135.466 115.304C129.075 122.701 117.896 123.483 110.499 117.092C103.102 110.701 102.321 99.5216 108.712 92.1249L124.032 74.4533" stroke="white" stroke-opacity="0.03" stroke-miterlimit="10"/>
<path d="M98.2177 50.2041L132.684 10.3922C139.075 2.99549 150.254 2.214 157.651 8.60503C165.047 14.9961 165.829 26.1751 159.438 33.5718L124.972 73.3838" stroke="white" stroke-opacity="0.03" stroke-miterlimit="10"/>
<path d="M95.5593 53.2429L126.849 17.1237C133.24 9.72694 144.419 8.94545 151.816 15.3365C159.213 21.7275 160.006 32.945 153.603 40.3033L122.313 76.4225" stroke="white" stroke-opacity="0.03" stroke-miterlimit="10"/>
<path d="M92.9124 56.3206L120.988 23.9054C127.379 16.5087 138.558 15.7272 145.954 22.1182C153.351 28.5092 154.133 39.6883 147.742 47.085L119.666 79.5002" stroke="white" stroke-opacity="0.03" stroke-miterlimit="10"/>
<path d="M90.254 59.3589L115.153 30.6363C121.544 23.2396 132.723 22.4581 140.12 28.8492C147.516 35.2402 148.298 46.4193 141.907 53.816L117.008 82.5385" stroke="white" stroke-opacity="0.03" stroke-miterlimit="10"/>
<path d="M87.6461 62.4248L109.319 37.3678C115.71 29.9711 126.889 29.1896 134.286 35.5806C141.683 41.9716 142.464 53.1507 136.073 60.5474L114.4 85.6044" stroke="white" stroke-opacity="0.03" stroke-miterlimit="10"/>
<path d="M84.9879 65.464L103.485 44.0997C109.876 36.703 121.055 35.9215 128.451 42.3125C135.848 48.7036 136.63 59.8826 130.238 67.2793L111.742 88.6436" stroke="white" stroke-opacity="0.03" stroke-miterlimit="10"/>
<path d="M82.3297 68.5022L97.65 50.8307C104.041 43.434 115.22 42.6525 122.617 49.0435C130.014 55.4345 130.795 66.6136 124.404 74.0103L109.084 91.6819" stroke="white" stroke-opacity="0.03" stroke-miterlimit="10"/>
</svg>
